<?xml version="1.0" encoding="UTF-8" standalone="no"?>
<svg
   xmlns:dc="http://purl.org/dc/elements/1.1/"
   xmlns:cc="http://creativecommons.org/ns#"
   xmlns:rdf="http://www.w3.org/1999/02/22-rdf-syntax-ns#"
   xmlns:svg="http://www.w3.org/2000/svg"
   xmlns="http://www.w3.org/2000/svg"
   xmlns:sodipodi="http://sodipodi.sourceforge.net/DTD/sodipodi-0.dtd"
   xmlns:inkscape="http://www.inkscape.org/namespaces/inkscape"
   viewBox="0 0 20 20"
   xml:space="preserve"
   version="1.1"
   id="svg4"
   sodipodi:docname="alpha lock.svg"
   inkscape:version="0.92.5 (2060ec1f9f, 2020-04-08)"
   inkscape:export-filename="/home/agni/Documents/Blender/addons/apaint/icons/alpha lock.png"
   inkscape:export-xdpi="153.60001"
   inkscape:export-ydpi="153.60001"><metadata
   id="metadata10"><rdf:RDF><cc:Work
       rdf:about=""><dc:format>image/svg+xml</dc:format><dc:type
         rdf:resource="http://purl.org/dc/dcmitype/StillImage" /><dc:title></dc:title></cc:Work></rdf:RDF></metadata><defs
   id="defs8" /><sodipodi:namedview
   pagecolor="#ffffff"
   bordercolor="#666666"
   borderopacity="1"
   objecttolerance="10"
   gridtolerance="10"
   guidetolerance="10"
   inkscape:pageopacity="0"
   inkscape:pageshadow="2"
   inkscape:window-width="1920"
   inkscape:window-height="1016"
   id="namedview6"
   showgrid="false"
   inkscape:zoom="32"
   inkscape:cx="14.678742"
   inkscape:cy="7.7369885"
   inkscape:window-x="0"
   inkscape:window-y="27"
   inkscape:window-maximized="1"
   inkscape:current-layer="layer1" />
    
<g
   inkscape:groupmode="layer"
   id="layer1"
   inkscape:label="Layer 1"
   style="display:none"><rect
     style="fill:#ff0000"
     id="rect15"
     width="25.59322"
     height="27.20339"
     x="-1.9491526"
     y="-2.5423729"
     ry="0.101881" /></g><g
   inkscape:groupmode="layer"
   id="layer2"
   inkscape:label="Layer 2"><path
     style="fill:#ffffff"
     d="M 10 4 C 7.8 4 6 5.8 6 8 L 6 15.5 C 6 15.8 6.2 16 6.5 16 C 6.8 16 7 15.8 7 15.5 L 7 11 L 13 11 L 13 12.699219 C 13.254286 12.434222 13.606912 12.267606 14 12.25 L 14 8 C 14 5.8 12.2 4 10 4 z M 10 5 C 11.7 5 13 6.3 13 8 L 13 10 L 7 10 L 7 8 C 7 6.3 8.3 5 10 5 z M 14.066406 12.294922 C 13.574157 12.294922 13.141199 12.541612 12.884766 12.917969 C 12.880999 12.923497 12.878691 12.929963 12.875 12.935547 C 12.725882 13.161179 12.638672 13.4305 12.638672 13.722656 L 12.638672 14.242188 L 11.947266 14.242188 C 11.716481 14.242186 11.53125 14.427419 11.53125 14.658203 L 11.53125 17.880859 C 11.53125 18.111644 11.716481 18.296875 11.947266 18.296875 L 16.277344 18.296875 C 16.508127 18.296875 16.693359 18.111644 16.693359 17.880859 L 16.693359 14.658203 C 16.693359 14.427419 16.508127 14.242187 16.277344 14.242188 L 15.494141 14.242188 L 15.494141 13.722656 C 15.494141 12.93102 14.858042 12.294922 14.066406 12.294922 z M 14.066406 12.574219 C 14.711321 12.574219 15.230469 13.122468 15.230469 13.800781 L 15.230469 14.242188 L 12.902344 14.242188 L 12.902344 13.800781 C 12.902344 13.122468 13.421492 12.574219 14.066406 12.574219 z M 14 12.638672 C 13.497034 12.671342 13.103962 13.049969 13 13.556641 L 13 14.191406 L 14 14.191406 L 14 12.638672 z M 14.042969 15.324219 A 0.5703125 0.5703125 0 0 1 14.613281 15.894531 A 0.5703125 0.5703125 0 0 1 14.208984 16.441406 L 14.208984 17.064453 C 14.208984 17.120895 14.163864 17.166016 14.107422 17.166016 L 13.984375 17.166016 C 13.927933 17.166016 13.882812 17.120895 13.882812 17.064453 L 13.882812 16.957031 L 13.791016 16.957031 C 13.734574 16.957031 13.689453 16.909958 13.689453 16.853516 C 13.689453 16.797074 13.734574 16.751953 13.791016 16.751953 L 13.882812 16.751953 L 13.882812 16.441406 A 0.5703125 0.5703125 0 0 1 13.472656 15.894531 A 0.5703125 0.5703125 0 0 1 14.042969 15.324219 z "
     id="path2" /></g></svg>