<?xml version="1.0" encoding="UTF-8" standalone="no"?>
<svg
   xmlns:dc="http://purl.org/dc/elements/1.1/"
   xmlns:cc="http://creativecommons.org/ns#"
   xmlns:rdf="http://www.w3.org/1999/02/22-rdf-syntax-ns#"
   xmlns:svg="http://www.w3.org/2000/svg"
   xmlns="http://www.w3.org/2000/svg"
   xmlns:sodipodi="http://sodipodi.sourceforge.net/DTD/sodipodi-0.dtd"
   xmlns:inkscape="http://www.inkscape.org/namespaces/inkscape"
   viewBox="0 0 20 20"
   xml:space="preserve"
   version="1.1"
   id="svg6"
   sodipodi:docname="stamp.svg"
   inkscape:version="0.92.5 (2060ec1f9f, 2020-04-08)"><metadata
   id="metadata12"><rdf:RDF><cc:Work
       rdf:about=""><dc:format>image/svg+xml</dc:format><dc:type
         rdf:resource="http://purl.org/dc/dcmitype/StillImage" /><dc:title></dc:title></cc:Work></rdf:RDF></metadata><defs
   id="defs10">
        
    </defs><sodipodi:namedview
   pagecolor="#ffffff"
   bordercolor="#666666"
   borderopacity="1"
   objecttolerance="10"
   gridtolerance="10"
   guidetolerance="10"
   inkscape:pageopacity="0"
   inkscape:pageshadow="2"
   inkscape:window-width="1920"
   inkscape:window-height="1016"
   id="namedview8"
   showgrid="false"
   inkscape:zoom="22.627417"
   inkscape:cx="10.256617"
   inkscape:cy="12.592825"
   inkscape:window-x="0"
   inkscape:window-y="27"
   inkscape:window-maximized="1"
   inkscape:current-layer="layer2" />
    
<g
   inkscape:groupmode="layer"
   id="layer1"
   inkscape:label="Layer 1"
   style="display:none"><rect
     style="fill:#000000;stroke:none;stroke-width:0.05;stroke-miterlimit:4;stroke-dasharray:none;stroke-opacity:1"
     id="rect823"
     width="35.932205"
     height="31.694916"
     x="-5.3389831"
     y="-5.5084743"
     ry="0.101881" /></g><g
   inkscape:groupmode="layer"
   id="layer2"
   inkscape:label="Layer 2"><path
     style="fill:#ffffff;stroke-width:1.23496962"
     d="m 14.576972,1.4278133 c -2.0915,1e-7 -3.782094,1.6930069 -3.782094,3.7845065 0,2.0914997 1.690594,3.7820943 3.782094,3.7820945 2.0915,-2e-7 3.782095,-1.6905948 3.782095,-3.7820945 0,-2.0914996 -1.690595,-3.7845064 -3.782095,-3.7845065 z M 10.40895,4.7636784 7.4035352,7.8076856 H 3.9543038 C 3.7902504,7.8077227 3.6335505,7.8723788 3.5177227,7.9885894 L 2.2827531,9.223559 c -0.2410537,0.2411279 -0.2410537,0.6320343 0,0.873162 l 7.4098177,7.409818 c 0.2411278,0.241054 0.6320342,0.241054 0.8731622,0 l 1.234969,-1.234969 c 0.116211,-0.11584 0.180867,-0.272528 0.180905,-0.436582 v -3.449232 l 2.961997,-2.9981776 c -0.122769,0.010784 -0.241091,0.038593 -0.366632,0.038593 -2.325099,-10e-8 -4.213851,-1.8887522 -4.213851,-4.2138514 0,-0.1535735 0.02977,-0.2992739 0.04583,-0.4486414 z"
     id="path2"
     inkscape:connector-curvature="0" /></g></svg>